<mxfile host="app.diagrams.net" modified="2023-12-21T20:02:26.553Z" agent="Mozilla/5.0 (Macintosh; Intel Mac OS X 10_15_7) AppleWebKit/537.36 (KHTML, like Gecko) Chrome/120.0.0.0 Safari/537.36" etag="MwIsDAyX8NOXHqD6dQf3" version="22.1.11" type="device">
  <diagram name="Page-1" id="VCOR-k6UynP_Xpb7MgOv">
    <mxGraphModel dx="1854" dy="674" grid="1" gridSize="10" guides="1" tooltips="1" connect="1" arrows="1" fold="1" page="1" pageScale="1" pageWidth="850" pageHeight="1100" math="0" shadow="0">
      <root>
        <mxCell id="0" />
        <mxCell id="1" parent="0" />
        <mxCell id="j3ayea9QpoNqX6YAgxvO-1" value="Stdio.c" style="ellipse;whiteSpace=wrap;html=1;" vertex="1" parent="1">
          <mxGeometry x="80" y="80" width="120" height="80" as="geometry" />
        </mxCell>
        <mxCell id="j3ayea9QpoNqX6YAgxvO-2" value="Main.c" style="ellipse;whiteSpace=wrap;html=1;" vertex="1" parent="1">
          <mxGeometry x="240" y="80" width="120" height="80" as="geometry" />
        </mxCell>
        <mxCell id="j3ayea9QpoNqX6YAgxvO-3" value="Function3.c" style="ellipse;whiteSpace=wrap;html=1;" vertex="1" parent="1">
          <mxGeometry x="520" y="80" width="120" height="80" as="geometry" />
        </mxCell>
        <mxCell id="j3ayea9QpoNqX6YAgxvO-4" value="Function4.c" style="ellipse;whiteSpace=wrap;html=1;" vertex="1" parent="1">
          <mxGeometry x="680" y="80" width="120" height="80" as="geometry" />
        </mxCell>
        <mxCell id="j3ayea9QpoNqX6YAgxvO-5" value="&lt;font style=&quot;font-size: 16px;&quot;&gt;Predefined functions from libraries&amp;nbsp;&lt;/font&gt;" style="text;html=1;strokeColor=none;fillColor=none;align=center;verticalAlign=middle;whiteSpace=wrap;rounded=0;" vertex="1" parent="1">
          <mxGeometry x="80" width="280" height="70" as="geometry" />
        </mxCell>
        <mxCell id="j3ayea9QpoNqX6YAgxvO-6" value="&lt;font style=&quot;font-size: 16px;&quot;&gt;Not Predefined functions from libraries&amp;nbsp;&lt;/font&gt;" style="text;html=1;strokeColor=none;fillColor=none;align=center;verticalAlign=middle;whiteSpace=wrap;rounded=0;" vertex="1" parent="1">
          <mxGeometry x="520" width="280" height="70" as="geometry" />
        </mxCell>
        <mxCell id="j3ayea9QpoNqX6YAgxvO-7" value="Compiler" style="shape=process;whiteSpace=wrap;html=1;backgroundOutline=1;" vertex="1" parent="1">
          <mxGeometry x="200" y="210" width="440" height="60" as="geometry" />
        </mxCell>
        <mxCell id="j3ayea9QpoNqX6YAgxvO-8" value="Object file" style="rounded=0;whiteSpace=wrap;html=1;" vertex="1" parent="1">
          <mxGeometry x="290" y="380" width="265" height="30" as="geometry" />
        </mxCell>
        <mxCell id="j3ayea9QpoNqX6YAgxvO-9" style="edgeStyle=orthogonalEdgeStyle;rounded=0;orthogonalLoop=1;jettySize=auto;html=1;exitX=0.5;exitY=1;exitDx=0;exitDy=0;entryX=0.493;entryY=-0.108;entryDx=0;entryDy=0;entryPerimeter=0;" edge="1" parent="1" source="j3ayea9QpoNqX6YAgxvO-7" target="j3ayea9QpoNqX6YAgxvO-8">
          <mxGeometry relative="1" as="geometry" />
        </mxCell>
        <mxCell id="j3ayea9QpoNqX6YAgxvO-10" value="&lt;font style=&quot;font-size: 16px;&quot;&gt;Produce&lt;/font&gt;" style="edgeLabel;html=1;align=center;verticalAlign=middle;resizable=0;points=[];" vertex="1" connectable="0" parent="j3ayea9QpoNqX6YAgxvO-9">
          <mxGeometry x="-0.1535" y="1" relative="1" as="geometry">
            <mxPoint y="1" as="offset" />
          </mxGeometry>
        </mxCell>
        <mxCell id="j3ayea9QpoNqX6YAgxvO-12" value="" style="ellipse;whiteSpace=wrap;html=1;" vertex="1" parent="1">
          <mxGeometry x="-280" y="320" width="120" height="80" as="geometry" />
        </mxCell>
        <mxCell id="j3ayea9QpoNqX6YAgxvO-20" style="edgeStyle=orthogonalEdgeStyle;rounded=0;orthogonalLoop=1;jettySize=auto;html=1;entryX=0.5;entryY=0;entryDx=0;entryDy=0;" edge="1" parent="1" source="j3ayea9QpoNqX6YAgxvO-13" target="j3ayea9QpoNqX6YAgxvO-19">
          <mxGeometry relative="1" as="geometry" />
        </mxCell>
        <mxCell id="j3ayea9QpoNqX6YAgxvO-21" value="&lt;font style=&quot;font-size: 13px;&quot;&gt;This object file will be given to the linker&amp;nbsp;&lt;/font&gt;" style="edgeLabel;html=1;align=center;verticalAlign=middle;resizable=0;points=[];" vertex="1" connectable="0" parent="j3ayea9QpoNqX6YAgxvO-20">
          <mxGeometry x="-0.1308" y="1" relative="1" as="geometry">
            <mxPoint y="1" as="offset" />
          </mxGeometry>
        </mxCell>
        <mxCell id="j3ayea9QpoNqX6YAgxvO-13" value="Reference of Function3.c&amp;nbsp;" style="rounded=0;whiteSpace=wrap;html=1;" vertex="1" parent="1">
          <mxGeometry x="342.5" y="410" width="160" height="60" as="geometry" />
        </mxCell>
        <mxCell id="j3ayea9QpoNqX6YAgxvO-14" value="Reference of Function4.c&amp;nbsp;" style="rounded=0;whiteSpace=wrap;html=1;" vertex="1" parent="1">
          <mxGeometry x="500" y="410" width="170" height="60" as="geometry" />
        </mxCell>
        <mxCell id="j3ayea9QpoNqX6YAgxvO-15" value="&lt;meta charset=&quot;utf-8&quot;&gt;&lt;span style=&quot;color: rgb(0, 0, 0); font-family: Helvetica; font-size: 12px; font-style: normal; font-variant-ligatures: normal; font-variant-caps: normal; font-weight: 400; letter-spacing: normal; orphans: 2; text-align: left; text-indent: 0px; text-transform: none; widows: 2; word-spacing: 0px; -webkit-text-stroke-width: 0px; background-color: rgb(251, 251, 251); text-decoration-thickness: initial; text-decoration-style: initial; text-decoration-color: initial; float: none; display: inline !important;&quot;&gt;Reference of Main.c&amp;nbsp;&lt;/span&gt;" style="rounded=0;whiteSpace=wrap;html=1;" vertex="1" parent="1">
          <mxGeometry x="180" y="410" width="170" height="60" as="geometry" />
        </mxCell>
        <mxCell id="j3ayea9QpoNqX6YAgxvO-44" style="edgeStyle=orthogonalEdgeStyle;rounded=0;orthogonalLoop=1;jettySize=auto;html=1;exitX=0;exitY=0.5;exitDx=0;exitDy=0;entryX=1;entryY=0.5;entryDx=0;entryDy=0;" edge="1" parent="1" source="j3ayea9QpoNqX6YAgxvO-16" target="j3ayea9QpoNqX6YAgxvO-8">
          <mxGeometry relative="1" as="geometry">
            <mxPoint x="570" y="400" as="targetPoint" />
            <Array as="points">
              <mxPoint x="760" y="180" />
              <mxPoint x="760" y="350" />
              <mxPoint x="571" y="350" />
              <mxPoint x="571" y="400" />
              <mxPoint x="555" y="400" />
            </Array>
          </mxGeometry>
        </mxCell>
        <mxCell id="j3ayea9QpoNqX6YAgxvO-45" value="&lt;font style=&quot;font-size: 13px;&quot;&gt;get the reference&amp;nbsp;&lt;/font&gt;" style="edgeLabel;html=1;align=center;verticalAlign=middle;resizable=0;points=[];" vertex="1" connectable="0" parent="j3ayea9QpoNqX6YAgxvO-44">
          <mxGeometry x="0.2319" y="-1" relative="1" as="geometry">
            <mxPoint as="offset" />
          </mxGeometry>
        </mxCell>
        <mxCell id="j3ayea9QpoNqX6YAgxvO-16" value="Main.c function" style="swimlane;whiteSpace=wrap;html=1;" vertex="1" parent="1">
          <mxGeometry x="850" y="80" width="200" height="200" as="geometry" />
        </mxCell>
        <mxCell id="j3ayea9QpoNqX6YAgxvO-46" style="edgeStyle=orthogonalEdgeStyle;rounded=0;orthogonalLoop=1;jettySize=auto;html=1;exitX=0;exitY=0.5;exitDx=0;exitDy=0;" edge="1" parent="1" source="j3ayea9QpoNqX6YAgxvO-17">
          <mxGeometry relative="1" as="geometry">
            <mxPoint x="550" y="399.68421052631584" as="targetPoint" />
          </mxGeometry>
        </mxCell>
        <mxCell id="j3ayea9QpoNqX6YAgxvO-47" value="get the reference&amp;nbsp;" style="edgeLabel;html=1;align=center;verticalAlign=middle;resizable=0;points=[];" vertex="1" connectable="0" parent="j3ayea9QpoNqX6YAgxvO-46">
          <mxGeometry x="-0.2581" y="-1" relative="1" as="geometry">
            <mxPoint x="1" as="offset" />
          </mxGeometry>
        </mxCell>
        <mxCell id="j3ayea9QpoNqX6YAgxvO-17" value="Function3.c&amp;nbsp;" style="swimlane;whiteSpace=wrap;html=1;" vertex="1" parent="1">
          <mxGeometry x="850" y="300" width="200" height="200" as="geometry" />
        </mxCell>
        <mxCell id="j3ayea9QpoNqX6YAgxvO-48" style="edgeStyle=orthogonalEdgeStyle;rounded=0;orthogonalLoop=1;jettySize=auto;html=1;exitX=0;exitY=0.25;exitDx=0;exitDy=0;" edge="1" parent="1" source="j3ayea9QpoNqX6YAgxvO-18">
          <mxGeometry relative="1" as="geometry">
            <mxPoint x="560" y="400" as="targetPoint" />
            <Array as="points">
              <mxPoint x="800" y="570" />
              <mxPoint x="800" y="380" />
              <mxPoint x="561" y="380" />
              <mxPoint x="561" y="400" />
            </Array>
          </mxGeometry>
        </mxCell>
        <mxCell id="j3ayea9QpoNqX6YAgxvO-49" value="get the reference&amp;nbsp;" style="edgeLabel;html=1;align=center;verticalAlign=middle;resizable=0;points=[];" vertex="1" connectable="0" parent="j3ayea9QpoNqX6YAgxvO-48">
          <mxGeometry x="0.5211" y="2" relative="1" as="geometry">
            <mxPoint as="offset" />
          </mxGeometry>
        </mxCell>
        <mxCell id="j3ayea9QpoNqX6YAgxvO-18" value="Function4.c&amp;nbsp;" style="swimlane;whiteSpace=wrap;html=1;" vertex="1" parent="1">
          <mxGeometry x="850" y="520" width="200" height="200" as="geometry" />
        </mxCell>
        <mxCell id="j3ayea9QpoNqX6YAgxvO-22" style="edgeStyle=orthogonalEdgeStyle;rounded=0;orthogonalLoop=1;jettySize=auto;html=1;exitX=0.5;exitY=1;exitDx=0;exitDy=0;" edge="1" parent="1" source="j3ayea9QpoNqX6YAgxvO-19">
          <mxGeometry relative="1" as="geometry">
            <mxPoint x="423" y="760" as="targetPoint" />
          </mxGeometry>
        </mxCell>
        <mxCell id="j3ayea9QpoNqX6YAgxvO-23" value="Will produce a&amp;nbsp;" style="edgeLabel;html=1;align=center;verticalAlign=middle;resizable=0;points=[];" vertex="1" connectable="0" parent="j3ayea9QpoNqX6YAgxvO-22">
          <mxGeometry x="-0.1089" y="3" relative="1" as="geometry">
            <mxPoint as="offset" />
          </mxGeometry>
        </mxCell>
        <mxCell id="j3ayea9QpoNqX6YAgxvO-19" value="Linker&amp;nbsp;" style="rounded=0;whiteSpace=wrap;html=1;" vertex="1" parent="1">
          <mxGeometry x="347.5" y="600" width="150" height="60" as="geometry" />
        </mxCell>
        <mxCell id="j3ayea9QpoNqX6YAgxvO-26" style="edgeStyle=orthogonalEdgeStyle;rounded=0;orthogonalLoop=1;jettySize=auto;html=1;exitX=0.5;exitY=1;exitDx=0;exitDy=0;entryX=0.5;entryY=0;entryDx=0;entryDy=0;" edge="1" parent="1" source="j3ayea9QpoNqX6YAgxvO-24" target="j3ayea9QpoNqX6YAgxvO-25">
          <mxGeometry relative="1" as="geometry" />
        </mxCell>
        <mxCell id="j3ayea9QpoNqX6YAgxvO-27" value="&lt;font style=&quot;font-size: 12px;&quot;&gt;Will be given to the Loader&amp;nbsp;&lt;/font&gt;" style="edgeLabel;html=1;align=center;verticalAlign=middle;resizable=0;points=[];" vertex="1" connectable="0" parent="j3ayea9QpoNqX6YAgxvO-26">
          <mxGeometry x="-0.1571" y="1" relative="1" as="geometry">
            <mxPoint as="offset" />
          </mxGeometry>
        </mxCell>
        <mxCell id="j3ayea9QpoNqX6YAgxvO-24" value="&lt;font style=&quot;font-size: 13px;&quot;&gt;Executable fill that contains all the actual codes of the functions&lt;/font&gt;" style="rounded=0;whiteSpace=wrap;html=1;" vertex="1" parent="1">
          <mxGeometry x="280" y="760" width="280" height="60" as="geometry" />
        </mxCell>
        <mxCell id="j3ayea9QpoNqX6YAgxvO-25" value="Loader&amp;nbsp;" style="rounded=0;whiteSpace=wrap;html=1;" vertex="1" parent="1">
          <mxGeometry x="360" y="890" width="120" height="60" as="geometry" />
        </mxCell>
        <mxCell id="j3ayea9QpoNqX6YAgxvO-32" style="edgeStyle=orthogonalEdgeStyle;rounded=0;orthogonalLoop=1;jettySize=auto;html=1;exitX=0.5;exitY=1;exitDx=0;exitDy=0;entryX=0.5;entryY=0;entryDx=0;entryDy=0;" edge="1" parent="1" source="j3ayea9QpoNqX6YAgxvO-28" target="j3ayea9QpoNqX6YAgxvO-31">
          <mxGeometry relative="1" as="geometry" />
        </mxCell>
        <mxCell id="j3ayea9QpoNqX6YAgxvO-33" value="&lt;font style=&quot;font-size: 13px;&quot;&gt;will be loaded to&amp;nbsp;&lt;/font&gt;" style="edgeLabel;html=1;align=center;verticalAlign=middle;resizable=0;points=[];" vertex="1" connectable="0" parent="j3ayea9QpoNqX6YAgxvO-32">
          <mxGeometry x="-0.217" y="1" relative="1" as="geometry">
            <mxPoint as="offset" />
          </mxGeometry>
        </mxCell>
        <mxCell id="j3ayea9QpoNqX6YAgxvO-28" value="&lt;font style=&quot;font-size: 14px;&quot;&gt;will load the executable file that have all the actual codes of the functions&amp;nbsp; &amp;nbsp;&lt;/font&gt;" style="rounded=0;whiteSpace=wrap;html=1;" vertex="1" parent="1">
          <mxGeometry x="250" y="1050" width="340" height="60" as="geometry" />
        </mxCell>
        <mxCell id="j3ayea9QpoNqX6YAgxvO-29" style="edgeStyle=orthogonalEdgeStyle;rounded=0;orthogonalLoop=1;jettySize=auto;html=1;exitX=0.5;exitY=1;exitDx=0;exitDy=0;entryX=0.5;entryY=0;entryDx=0;entryDy=0;" edge="1" parent="1" source="j3ayea9QpoNqX6YAgxvO-25" target="j3ayea9QpoNqX6YAgxvO-28">
          <mxGeometry relative="1" as="geometry" />
        </mxCell>
        <mxCell id="j3ayea9QpoNqX6YAgxvO-30" value="&lt;font style=&quot;font-size: 13px;&quot;&gt;its role&lt;/font&gt;" style="edgeLabel;html=1;align=center;verticalAlign=middle;resizable=0;points=[];" vertex="1" connectable="0" parent="j3ayea9QpoNqX6YAgxvO-29">
          <mxGeometry x="-0.1877" y="1" relative="1" as="geometry">
            <mxPoint y="1" as="offset" />
          </mxGeometry>
        </mxCell>
        <mxCell id="j3ayea9QpoNqX6YAgxvO-42" style="edgeStyle=orthogonalEdgeStyle;rounded=0;orthogonalLoop=1;jettySize=auto;html=1;exitX=1;exitY=0.25;exitDx=0;exitDy=0;" edge="1" parent="1" source="j3ayea9QpoNqX6YAgxvO-31">
          <mxGeometry relative="1" as="geometry">
            <mxPoint x="720" y="1215.4736842105265" as="targetPoint" />
          </mxGeometry>
        </mxCell>
        <mxCell id="j3ayea9QpoNqX6YAgxvO-31" value="CPU(memory)" style="rounded=0;whiteSpace=wrap;html=1;" vertex="1" parent="1">
          <mxGeometry x="360" y="1200" width="120" height="60" as="geometry" />
        </mxCell>
        <mxCell id="j3ayea9QpoNqX6YAgxvO-41" style="edgeStyle=orthogonalEdgeStyle;rounded=0;orthogonalLoop=1;jettySize=auto;html=1;exitX=0;exitY=0.5;exitDx=0;exitDy=0;entryX=1;entryY=0.5;entryDx=0;entryDy=0;" edge="1" parent="1" source="j3ayea9QpoNqX6YAgxvO-35" target="j3ayea9QpoNqX6YAgxvO-31">
          <mxGeometry relative="1" as="geometry" />
        </mxCell>
        <mxCell id="j3ayea9QpoNqX6YAgxvO-35" value="Execution&amp;nbsp;" style="rounded=0;whiteSpace=wrap;html=1;" vertex="1" parent="1">
          <mxGeometry x="720" y="1200" width="120" height="60" as="geometry" />
        </mxCell>
        <mxCell id="j3ayea9QpoNqX6YAgxvO-37" value="&lt;font style=&quot;font-size: 16px;&quot;&gt;when any function is needed while running it gets it actual code from the memory&amp;nbsp;&amp;nbsp;&lt;/font&gt;" style="text;html=1;strokeColor=none;fillColor=none;align=center;verticalAlign=middle;whiteSpace=wrap;rounded=0;" vertex="1" parent="1">
          <mxGeometry x="640" y="1280" width="280" height="70" as="geometry" />
        </mxCell>
        <mxCell id="j3ayea9QpoNqX6YAgxvO-43" value="&lt;font style=&quot;font-size: 16px;&quot;&gt;the linker will solve all the functions and put the actual code of the functions in the executable file&amp;nbsp;&amp;nbsp;&lt;/font&gt;" style="text;html=1;strokeColor=none;fillColor=none;align=center;verticalAlign=middle;whiteSpace=wrap;rounded=0;" vertex="1" parent="1">
          <mxGeometry x="62.5" y="600" width="280" height="70" as="geometry" />
        </mxCell>
      </root>
    </mxGraphModel>
  </diagram>
</mxfile>
